<svg width="24.000000000000004" height="24.000000000000004" xmlns="http://www.w3.org/2000/svg">

 <g>
  <title>background</title>
  <rect fill="none" id="canvas_background" height="402" width="582" y="-1" x="-1"/>
 </g>
 <g>
  <title>Layer 1</title>
  <path fill="#ffffff" id="svg_1" fill-rule="evenodd" d="m23.248539,14.560674l-8.71512,0l0,8.731668c0,0.283522 -0.229669,0.513628 -0.512654,0.513628l-4.101233,0c-0.282985,0 -0.512654,-0.230105 -0.512654,-0.513628l0,-8.731668l-8.71512,0c-0.282985,0 -0.512654,-0.230105 -0.512654,-0.513628l0,-4.10902c0,-0.283522 0.229669,-0.513628 0.512654,-0.513628l8.71512,0l0,-8.731668c0,-0.283522 0.229669,-0.513628 0.512654,-0.513628l4.101233,0c0.282985,0 0.512654,0.230105 0.512654,0.513628l0,8.731668l8.71512,0c0.282985,0 0.512654,0.230105 0.512654,0.513628l0,4.10902c0,0.283522 -0.229669,0.513628 -0.512654,0.513628z" clip-rule="evenodd"/>
 </g>
</svg>